<svg xmlns="http://www.w3.org/2000/svg" viewBox="0 0 64 64">
  <g fill="#ffffff">
    
    <rect x="28" y="8" width="8" height="6"></rect>

    
    <path d="M8 18 L20 14 L44 14 L56 18 L56 24 L8 24 Z"></path>

    
    <g>
      <rect x="0" y="2" width="20" height="10"></rect>
      <rect x="1.2" y="3" width="2.4" height="8"></rect>
      <rect x="4.4" y="3" width="2.4" height="8"></rect>
      <rect x="7.6" y="3" width="2.4" height="8"></rect>
      <rect x="10.8" y="3" width="2.4" height="8"></rect>
      <rect x="14" y="3" width="2.4" height="8"></rect>
      <rect x="17.2" y="3" width="2.4" height="8"></rect>
    </g>
    <g>
      <rect x="44" y="2" width="20" height="10"></rect>
      <rect x="45.2" y="3" width="2.4" height="8"></rect>
      <rect x="48.4" y="3" width="2.4" height="8"></rect>
      <rect x="51.6" y="3" width="2.4" height="8"></rect>
      <rect x="54.8" y="3" width="2.4" height="8"></rect>
      <rect x="58" y="3" width="2.4" height="8"></rect>
      <rect x="61.2" y="3" width="2.4" height="8"></rect>
    </g>

    
    <polygon points="18,12 24,14 24,18 20,18"></polygon>
    <polygon points="46,12 40,14 40,18 44,18"></polygon>

    
    <rect x="0" y="17" width="12" height="6"></rect>
    <rect x="52" y="17" width="12" height="6"></rect>
    <rect x="0" y="16" width="3" height="8"></rect>
    <rect x="61" y="16" width="3" height="8"></rect>

    
    <path d="M24 24 L40 24 L38 36 L26 36 Z"></path>

    
    <rect x="10" y="36" width="44" height="3.5"></rect>

    
    <path d="M10 39.5 L18 39.5 L18 50 L21 60 L11 60 L7 50 Z"></path>
    <path d="M46 39.5 L54 39.5 L57 50 L53 60 L43 60 L46 50 Z"></path>
    <rect x="9" y="48" width="9" height="1.5"></rect>
    <rect x="46" y="48" width="9" height="1.5"></rect>
  </g>
</svg>