<svg xmlns="http://www.w3.org/2000/svg" viewBox="0 0 64 64">
  <g fill="#ffffff">
    
    <rect x="31" y="2" width="2" height="20"></rect>
    <rect x="26" y="6" width="1.5" height="16"></rect>
    <rect x="36.5" y="6" width="1.5" height="16"></rect>
    <rect x="21" y="10" width="1.3" height="14"></rect>
    <rect x="41.7" y="10" width="1.3" height="14"></rect>
    
    <circle cx="32" cy="2.5" r="1.4"></circle>
    <circle cx="26.75" cy="6.4" r="1.1"></circle>
    <circle cx="37.25" cy="6.4" r="1.1"></circle>
    <circle cx="21.65" cy="10.4" r="1"></circle>
    <circle cx="42.35" cy="10.4" r="1"></circle>

    
    <rect x="31" y="42" width="2" height="20"></rect>
    <rect x="26" y="42" width="1.5" height="16"></rect>
    <rect x="36.5" y="42" width="1.5" height="16"></rect>
    <rect x="21" y="40" width="1.3" height="14"></rect>
    <rect x="41.7" y="40" width="1.3" height="14"></rect>
    <circle cx="32" cy="61.5" r="1.4"></circle>
    <circle cx="26.75" cy="57.6" r="1.1"></circle>
    <circle cx="37.25" cy="57.6" r="1.1"></circle>
    <circle cx="21.65" cy="53.6" r="1"></circle>
    <circle cx="42.35" cy="53.6" r="1"></circle>
  </g>
  
  <path fill="#ffffff" fill-rule="evenodd" d="M52 32 A20 20 0 1 1 12 32 A20 20 0 1 1 52 32 Z&#xA;           M14 37.5 L50 37.5 L50 39.5 L14 39.5 Z&#xA;           M36 25 A4 4 0 1 0 28 25 A4 4 0 1 0 36 25 Z"></path>
  
  <g fill="#ffffff">
    <circle cx="18" cy="18" r="1.4"></circle>
    <circle cx="46" cy="18" r="1.4"></circle>
    <circle cx="16" cy="46" r="1.4"></circle>
    <circle cx="48" cy="46" r="1.4"></circle>
  </g>
</svg>