<svg xmlns="http://www.w3.org/2000/svg" viewBox="0 0 64 64" width="64" height="64" fill="none" stroke="#3fb950" stroke-width="3" stroke-linecap="square" stroke-linejoin="miter">
  
  
  <polyline points="20,8 28,16 20,24 28,32 20,40 28,48 20,56"></polyline>
  
  <polyline points="44,8 36,16 44,24 36,32 44,40 36,48 44,56"></polyline>
  
  <line x1="28" y1="16" x2="36" y2="16"></line>
  <line x1="20" y1="24" x2="44" y2="24"></line>
  <line x1="28" y1="32" x2="36" y2="32"></line>
  <line x1="20" y1="40" x2="44" y2="40"></line>
  <line x1="28" y1="48" x2="36" y2="48"></line>
  
  <circle cx="20" cy="8" r="2" fill="#3fb950" stroke="none"></circle>
  <circle cx="44" cy="8" r="2" fill="#3fb950" stroke="none"></circle>
  <circle cx="20" cy="56" r="2" fill="#3fb950" stroke="none"></circle>
  <circle cx="44" cy="56" r="2" fill="#3fb950" stroke="none"></circle>
</svg>