<svg xmlns="http://www.w3.org/2000/svg" viewBox="0 0 64 64" width="64" height="64" fill="none" stroke="#e3b341" stroke-width="3" stroke-linecap="square" stroke-linejoin="miter">
  
  
  <line x1="20" y1="8" x2="20" y2="16"></line>
  <line x1="28" y1="8" x2="28" y2="16"></line>
  <line x1="36" y1="8" x2="36" y2="16"></line>
  <line x1="44" y1="8" x2="44" y2="16"></line>
  
  <line x1="20" y1="48" x2="20" y2="56"></line>
  <line x1="28" y1="48" x2="28" y2="56"></line>
  <line x1="36" y1="48" x2="36" y2="56"></line>
  <line x1="44" y1="48" x2="44" y2="56"></line>
  
  <line x1="8" y1="20" x2="16" y2="20"></line>
  <line x1="8" y1="28" x2="16" y2="28"></line>
  <line x1="8" y1="36" x2="16" y2="36"></line>
  <line x1="8" y1="44" x2="16" y2="44"></line>
  
  <line x1="48" y1="20" x2="56" y2="20"></line>
  <line x1="48" y1="28" x2="56" y2="28"></line>
  <line x1="48" y1="36" x2="56" y2="36"></line>
  <line x1="48" y1="44" x2="56" y2="44"></line>
  
  <rect x="16" y="16" width="32" height="32"></rect>
  
  <circle cx="22" cy="22" r="2" fill="#e3b341" stroke="none"></circle>
  
  <rect x="26" y="26" width="12" height="12"></rect>
</svg>