<svg xmlns="http://www.w3.org/2000/svg" viewBox="0 0 64 64" width="64" height="64">
  
  <polygon points="32,21.5 35.17,30.63 44.84,30.83 37.14,36.67 39.94,45.92 32,40.40 24.06,45.92 26.86,36.67 19.16,30.83 28.83,30.63" fill="#d4a017"></polygon>

  
  
  <g fill="#d4a017">
    
    <g transform="translate(26.56 55.28) rotate(195)"><path d="M0 0 Q3.5 -2 8 0 Q3.5 2 0 0 Z"></path></g>
    <g transform="translate(18.50 51.09) rotate(220)"><path d="M0 0 Q3.5 -2 8 0 Q3.5 2 0 0 Z"></path></g>
    <g transform="translate(12.97 43.87) rotate(245)"><path d="M0 0 Q3.5 -2 8 0 Q3.5 2 0 0 Z"></path></g>
    <g transform="translate(11.00 35.00) rotate(270)"><path d="M0 0 Q3.5 -2 8 0 Q3.5 2 0 0 Z"></path></g>
    <g transform="translate(12.97 26.13) rotate(295)"><path d="M0 0 Q3.5 -2 8 0 Q3.5 2 0 0 Z"></path></g>

    
    <g transform="translate(37.44 55.28) rotate(-15)"><path d="M0 0 Q3.5 -2 8 0 Q3.5 2 0 0 Z"></path></g>
    <g transform="translate(45.50 51.09) rotate(-40)"><path d="M0 0 Q3.5 -2 8 0 Q3.5 2 0 0 Z"></path></g>
    <g transform="translate(51.03 43.87) rotate(-65)"><path d="M0 0 Q3.5 -2 8 0 Q3.5 2 0 0 Z"></path></g>
    <g transform="translate(53.00 35.00) rotate(-90)"><path d="M0 0 Q3.5 -2 8 0 Q3.5 2 0 0 Z"></path></g>
    <g transform="translate(51.03 26.13) rotate(-115)"><path d="M0 0 Q3.5 -2 8 0 Q3.5 2 0 0 Z"></path></g>

    
    
    <path d="M 32 55.5 C 28 53.5 23 54 22 57 C 23 59 28 58.5 32 56.5 Z"></path>
    
    <path d="M 32 55.5 C 36 53.5 41 54 42 57 C 41 59 36 58.5 32 56.5 Z"></path>
    
    <rect x="30.5" y="54.5" width="3" height="3.5" rx="0.4"></rect>
    
    <path d="M 30 58 L 28.5 61.5 L 31.5 60 Z"></path>
    <path d="M 34 58 L 35.5 61.5 L 32.5 60 Z"></path>
  </g>
</svg>