<svg xmlns="http://www.w3.org/2000/svg" viewBox="0 0 64 64" width="64" height="64">
  <path fill="#d4a017" fill-rule="evenodd" d="M27.5 4h9l1.2 6.6a22 22 0 0 1 5.3 2.2l5.6-3.8 6.4 6.4-3.8 5.6a22 22 0 0 1 2.2 5.3L60 27.5v9l-6.6 1.2a22 22 0 0 1-2.2 5.3l3.8 5.6-6.4 6.4-5.6-3.8a22 22 0 0 1-5.3 2.2L36.5 60h-9l-1.2-6.6a22 22 0 0 1-5.3-2.2l-5.6 3.8-6.4-6.4 3.8-5.6a22 22 0 0 1-2.2-5.3L4 36.5v-9l6.6-1.2a22 22 0 0 1 2.2-5.3l-3.8-5.6 6.4-6.4 5.6 3.8a22 22 0 0 1 5.3-2.2L27.5 4ZM32 22a10 10 0 1 0 0 20 10 10 0 0 0 0-20Z"></path>
</svg>